<svg width="222" height="75" viewBox="0 0 222 75" fill="none" xmlns="http://www.w3.org/2000/svg">
<path d="M127.547 20.6912H118.612V27.9978H128.991V30.2209H115.893V9.60376H128.85V11.8411H118.612V18.468H127.547V20.6912ZM132.494 22.4329C132.494 20.0823 133.051 18.1943 134.165 16.7688C135.279 15.3339 136.738 14.6165 138.541 14.6165C140.334 14.6165 141.755 15.2301 142.803 16.4573V8.47095H145.423V30.2209H143.015L142.888 28.5784C141.84 29.8622 140.382 30.5042 138.513 30.5042C136.738 30.5042 135.289 29.7773 134.165 28.3235C133.051 26.8697 132.494 24.9722 132.494 22.6311V22.4329ZM135.114 22.7302C135.114 24.4672 135.473 25.8266 136.19 26.8083C136.908 27.7901 137.899 28.281 139.164 28.281C140.825 28.281 142.038 27.5352 142.803 26.0437V19.0061C142.019 17.5618 140.816 16.8396 139.192 16.8396C137.908 16.8396 136.908 17.3352 136.19 18.3264C135.473 19.3176 135.114 20.7856 135.114 22.7302ZM154.505 11.1897V14.8997H157.365V16.9246H154.505V26.426C154.505 27.0396 154.632 27.5022 154.887 27.8137C155.142 28.1158 155.576 28.2668 156.19 28.2668C156.492 28.2668 156.907 28.2102 157.436 28.0969V30.2209C156.747 30.4097 156.077 30.5042 155.425 30.5042C154.255 30.5042 153.372 30.1501 152.777 29.4421C152.183 28.7341 151.885 27.7288 151.885 26.426V16.9246H149.096V14.8997H151.885V11.1897H154.505ZM168.246 30.5042C166.169 30.5042 164.479 29.8245 163.177 28.4651C161.874 27.0963 161.223 25.2696 161.223 22.9851V22.5037C161.223 20.9838 161.51 19.6292 162.086 18.4397C162.672 17.2408 163.483 16.3062 164.522 15.636C165.57 14.9563 166.703 14.6165 167.92 14.6165C169.912 14.6165 171.46 15.2725 172.565 16.5847C173.669 17.8969 174.222 19.7755 174.222 22.2205V23.3108H163.842C163.88 24.8212 164.319 26.0437 165.159 26.9783C166.009 27.9034 167.085 28.366 168.388 28.366C169.313 28.366 170.096 28.1772 170.738 27.7996C171.38 27.422 171.942 26.9216 172.423 26.2986L174.023 27.5447C172.739 29.5177 170.814 30.5042 168.246 30.5042ZM167.92 16.7688C166.863 16.7688 165.976 17.1558 165.258 17.9299C164.541 18.6946 164.097 19.7708 163.927 21.1584H171.602V20.9602C171.526 19.6292 171.168 18.6002 170.526 17.8733C169.884 17.137 169.015 16.7688 167.92 16.7688ZM184.862 28.366C185.796 28.366 186.613 28.0828 187.311 27.5164C188.01 26.95 188.397 26.2419 188.472 25.3923H190.95C190.903 26.2703 190.601 27.1057 190.044 27.8987C189.487 28.6917 188.741 29.3241 187.807 29.7961C186.882 30.2681 185.9 30.5042 184.862 30.5042C182.775 30.5042 181.114 29.8103 179.877 28.4226C178.65 27.0255 178.036 25.1186 178.036 22.7019V22.2629C178.036 20.7714 178.31 19.4451 178.858 18.2839C179.405 17.1228 180.189 16.2213 181.208 15.5793C182.237 14.9374 183.45 14.6165 184.847 14.6165C186.565 14.6165 187.991 15.1309 189.124 16.1599C190.266 17.1889 190.875 18.5247 190.95 20.1672H188.472C188.397 19.176 188.019 18.3642 187.34 17.7317C186.669 17.0898 185.839 16.7688 184.847 16.7688C183.516 16.7688 182.483 17.2502 181.746 18.2131C181.019 19.1666 180.656 20.5496 180.656 22.3621V22.8577C180.656 24.623 181.019 25.9823 181.746 26.9358C182.473 27.8892 183.512 28.366 184.862 28.366ZM197.965 16.7546C199.126 15.3292 200.637 14.6165 202.497 14.6165C205.735 14.6165 207.368 16.4431 207.396 20.0964V30.2209H204.776V20.0823C204.767 18.9778 204.512 18.1612 204.012 17.6326C203.521 17.1039 202.751 16.8396 201.704 16.8396C200.854 16.8396 200.108 17.0662 199.466 17.5193C198.824 17.9724 198.324 18.5671 197.965 19.3035V30.2209H195.346V8.47095H197.965V16.7546ZM123.455 47.8806H118.612V56.2209H115.879V35.6038H122.704C125.026 35.6038 126.811 36.1324 128.057 37.1897C129.312 38.247 129.94 39.7857 129.94 41.8059C129.94 43.0898 129.591 44.2084 128.892 45.1619C128.203 46.1153 127.24 46.828 126.003 47.3L130.846 56.051V56.2209H127.929L123.455 47.8806ZM118.612 45.6575H122.789C124.139 45.6575 125.21 45.3082 126.003 44.6096C126.806 43.9111 127.207 42.9765 127.207 41.8059C127.207 40.5315 126.825 39.5544 126.06 38.8748C125.305 38.1951 124.21 37.8505 122.775 37.8411H118.612V45.6575ZM141.16 56.5042C139.084 56.5042 137.394 55.8245 136.091 54.4651C134.788 53.0963 134.137 51.2696 134.137 48.9851V48.5037C134.137 46.9838 134.425 45.6292 135.001 44.4397C135.586 43.2408 136.398 42.3062 137.436 41.636C138.484 40.9563 139.617 40.6165 140.835 40.6165C142.827 40.6165 144.375 41.2725 145.479 42.5847C146.584 43.8969 147.136 45.7755 147.136 48.2205V49.3108H136.757C136.794 50.8212 137.233 52.0437 138.074 52.9783C138.923 53.9034 139.999 54.366 141.302 54.366C142.227 54.366 143.011 54.1772 143.653 53.7996C144.295 53.422 144.856 52.9216 145.338 52.2986L146.938 53.5447C145.654 55.5177 143.728 56.5042 141.16 56.5042ZM140.835 42.7688C139.777 42.7688 138.89 43.1558 138.173 43.9299C137.455 44.6946 137.012 45.7708 136.842 47.1584H144.516V46.9602C144.441 45.6292 144.082 44.6002 143.44 43.8733C142.798 43.137 141.93 42.7688 140.835 42.7688ZM156.487 52.6667L160.282 40.8997H162.959L157.464 56.2209H155.468L149.917 40.8997H152.593L156.487 52.6667ZM169.775 56.2209H167.156V40.8997H169.775V56.2209ZM166.943 36.8357C166.943 36.4109 167.071 36.0522 167.326 35.7595C167.59 35.4669 167.977 35.3206 168.487 35.3206C168.996 35.3206 169.384 35.4669 169.648 35.7595C169.912 36.0522 170.044 36.4109 170.044 36.8357C170.044 37.2605 169.912 37.6145 169.648 37.8977C169.384 38.1809 168.996 38.3225 168.487 38.3225C167.977 38.3225 167.59 38.1809 167.326 37.8977C167.071 37.6145 166.943 37.2605 166.943 36.8357ZM181.789 56.5042C179.712 56.5042 178.022 55.8245 176.719 54.4651C175.417 53.0963 174.765 51.2696 174.765 48.9851V48.5037C174.765 46.9838 175.053 45.6292 175.629 44.4397C176.214 43.2408 177.026 42.3062 178.065 41.636C179.112 40.9563 180.245 40.6165 181.463 40.6165C183.455 40.6165 185.003 41.2725 186.108 42.5847C187.212 43.8969 187.764 45.7755 187.764 48.2205V49.3108H177.385C177.423 50.8212 177.862 52.0437 178.702 52.9783C179.551 53.9034 180.628 54.366 181.93 54.366C182.856 54.366 183.639 54.1772 184.281 53.7996C184.923 53.422 185.485 52.9216 185.966 52.2986L187.566 53.5447C186.282 55.5177 184.356 56.5042 181.789 56.5042ZM181.463 42.7688C180.406 42.7688 179.518 43.1558 178.801 43.9299C178.084 44.6946 177.64 45.7708 177.47 47.1584H185.145V46.9602C185.069 45.6292 184.71 44.6002 184.069 43.8733C183.427 43.137 182.558 42.7688 181.463 42.7688ZM205.824 52.6101L208.77 40.8997H211.389L206.929 56.2209H204.805L201.081 44.6096L197.456 56.2209H195.332L190.885 40.8997H193.491L196.507 52.3694L200.075 40.8997H202.185L205.824 52.6101Z" fill="#152F70"/>
<line x1="84" y1="3.22095" x2="84" y2="65.2209" stroke="#152F70" stroke-width="3"/>
<path d="M16.4538 31.6009L22.977 25.6707C23.9688 24.7691 25.2609 24.2695 26.6012 24.2695C27.2866 24.2695 27.9658 24.4003 28.6022 24.6549L28.8201 24.742C29.5135 25.0194 30.1549 25.4123 30.7169 25.9041L33.434 28.2816L36.458 30.9696C37.1078 31.5472 37.6142 32.2682 37.9371 33.0754C38.2017 33.737 38.3377 34.4429 38.3377 35.1554V35.2865C38.3377 35.9616 38.2288 36.6323 38.0154 37.2728L37.8307 37.8267C37.5753 38.593 37.2268 39.3251 36.7932 40.0066L32.2693 47.1155C31.5611 48.2283 30.95 49.4 30.4427 50.6175L29.5014 52.8767C29.1521 53.715 28.8864 54.5858 28.7083 55.4763L27.8949 59.5435C27.7304 60.3662 27.2589 61.0954 26.5761 61.5831C25.3618 62.4505 23.7167 62.3957 22.5628 61.4495L2.22893 44.7757C1.64261 44.1894 1.20085 43.4746 0.938637 42.688L0.891574 42.5468C0.421008 41.1351 1.30987 39.6339 2.77393 39.3677L4.24533 39.1002C4.68076 39.021 5.0987 38.8652 5.47972 38.6401L12.6831 34.3835C14.0315 33.5868 15.295 32.6544 16.4538 31.6009Z" fill="#152F70"/>
<path d="M51.7891 3.39092C52.5154 3.76756 53.1455 4.30625 53.6303 4.96532V4.96532C54.127 5.64041 54.4576 6.42304 54.5954 7.24976L54.6381 7.50635C54.766 8.27397 54.7533 9.05844 54.6007 9.82153L54.5626 10.012C54.4453 10.5986 54.2503 11.167 53.9827 11.7021V11.7021C53.6592 12.3491 53.2335 12.9398 52.7219 13.4514L49.0364 17.1369L44.1327 22.0406L40.6598 24.7637C39.7556 25.4727 38.5968 25.7726 37.4622 25.5912L37.0979 25.533C35.6867 25.3074 34.5463 24.2616 34.1998 22.8752V22.8752C33.9932 22.0489 34.089 21.176 34.4699 20.4143L35.6628 18.0285L37.4459 14.4622L41.458 8.22116L44.4422 4.64021C45.3878 3.50549 46.7358 2.78066 48.2039 2.61752V2.61752C49.328 2.4926 50.4639 2.7038 51.468 3.22443L51.7891 3.39092Z" fill="#152F70"/>
<path d="M10.4484 55.1498L12.2042 56.8879L13.9754 58.4743C14.065 58.5545 14.1444 58.6456 14.2116 58.7453L14.3053 58.8845C14.5543 59.2539 14.5745 59.7319 14.3577 60.1211V60.1211C14.2709 60.2769 14.15 60.411 14.0041 60.5135L13.0702 61.1691L12.8757 61.2719C12.3244 61.5632 11.7104 61.7155 11.0869 61.7155V61.7155C10.5375 61.7155 9.99453 61.5972 9.49487 61.3688L8.24972 60.7995C7.39185 60.4073 6.63429 59.8253 6.03421 59.0976L5.63768 58.6166C5.20804 58.0956 4.92182 57.4714 4.80732 56.8058V56.8058C4.76993 56.5885 4.75113 56.3684 4.75113 56.1478L4.75113 55.1498L4.90113 53.9128C4.95266 53.4879 5.18129 53.1045 5.53065 52.8571V52.8571C5.97067 52.5456 6.54296 52.491 7.03397 52.7136L7.62334 52.9809C7.82647 53.073 8.01714 53.1904 8.19081 53.3304L10.4484 55.1498Z" fill="#152F70"/>
<path d="M20.2238 33.199C19.8554 32.7079 19.9314 32.0152 20.3975 31.6157L22.6893 29.6512L23.5086 29.1051C23.853 28.8755 24.2203 28.6823 24.6046 28.5285L24.9883 28.3751C25.8152 28.0443 26.7205 27.9612 27.5938 28.1359V28.1359C28.1819 28.2535 28.7412 28.4851 29.2402 28.8178L29.8218 29.2056L29.9159 29.2526C30.4046 29.497 30.7133 29.9965 30.7134 30.5429V30.5429V30.5429C30.7134 31.2009 30.0688 31.6655 29.4446 31.4574L29.3759 31.4345L28.8997 31.2758C28.3293 31.0857 27.732 30.9887 27.1308 30.9887V30.9887C26.262 30.9886 25.4052 31.1909 24.6282 31.5794L24.2818 31.7525C24.1119 31.8375 23.949 31.9356 23.7945 32.046L21.8326 33.4477C21.3178 33.8155 20.6035 33.7051 20.2238 33.199V33.199Z" fill="white"/>
</svg>
